<?xml version="1.0" encoding="UTF-8"?>
<svg width="120px" height="40px" viewBox="0 0 120 40" version="1.1" xmlns="http://www.w3.org/2000/svg" xmlns:xlink="http://www.w3.org/1999/xlink">
    <!-- Generator: Sketch 52 (66869) - http://www.bohemiancoding.com/sketch -->
    <title>Logo C 120x40</title>
    <desc>Created with Sketch.</desc>
    <defs>
        <path d="M2.29548638,8.12254149 L2.29548638,8.12488775 L0.192084055,8.12488775 C0.169657071,8.12488775 0.147448343,8.12617143 0.125494686,8.12868821 L0.125494686,1.61926273 C0.125494686,1.01523838 0.611263872,0.525579907 1.21049053,0.525579907 C1.80971719,0.525579907 2.29548638,1.01523838 2.29548638,1.61926273 L2.29548638,5.95198104 L6.02610949,5.95198104 C6.46264236,5.95198104 6.81652217,6.43787755 6.81652217,7.03726126 C6.81652217,7.63664498 6.46264236,8.12254149 6.02610949,8.12254149 L2.29548638,8.12254149 Z M2.29548638,10.2954482 L2.29548638,16.6155007 C2.29548638,17.219525 1.80971719,17.7091835 1.21049053,17.7091835 C0.611263872,17.7091835 0.125494686,17.219525 0.125494686,16.6155007 L0.125494686,10.2916478 C0.147448343,10.2941645 0.169657071,10.2954482 0.192084055,10.2954482 L2.29548638,10.2954482 Z M52.9083416,8.2830951 C52.9384149,8.43629347 52.9602152,8.57469832 52.9602152,8.6651816 C52.9602152,9.02694168 52.5983911,9.20782172 52.417479,9.20782172 C52.2365669,9.20782172 51.8747428,9.20782172 51.5129187,9.20782172 C51.1510946,9.20782172 50.9701825,8.84606164 50.7892705,8.6651816 C50.7298819,8.6058035 50.6603759,8.48723265 50.5843165,8.36136446 C49.7867658,6.82254789 48.1797715,5.771101 46.3272629,5.771101 C43.6806785,5.771101 41.5351979,7.91714391 41.5351979,10.564422 C41.5351979,13.2117001 43.6806785,15.357743 46.3272629,15.357743 C48.1764965,15.357743 49.7810832,14.3100104 50.5800791,12.7756361 C50.7391644,12.5846243 50.8901121,12.3628386 50.9701825,12.2827824 C51.1510946,12.1019023 51.5129187,12.1019023 51.8747428,12.1019023 C52.2365669,12.1019023 52.417479,12.1019023 52.5983911,12.2827824 C52.7607367,12.4450993 52.9230824,12.7530751 52.823961,13.0759994 C52.8103814,13.1111137 52.7965255,13.1460903 52.7823959,13.1809266 C52.7813768,13.1830118 52.780346,13.1850972 52.7793031,13.1871825 C51.7442514,15.7333073 49.2459197,17.5283035 46.3284542,17.5283035 C42.4834165,17.5283035 39.3663975,14.4104675 39.3663975,10.564422 C39.3663975,6.71837647 42.4834165,3.60054055 46.3284542,3.60054055 C49.3746874,3.60054055 51.9639717,5.55748435 52.9083416,8.2830951 Z M57.4736639,9.84492954 L57.4736639,16.6155007 C57.4736639,17.219525 56.9878947,17.7091835 56.3886681,17.7091835 C55.7894414,17.7091835 55.3036722,17.219525 55.3036722,16.6155007 L55.3036722,1.61926273 C55.3036722,1.01523838 55.7894414,0.525579907 56.3886681,0.525579907 C56.9878947,0.525579907 57.4736639,1.01523838 57.4736639,1.61926273 L57.4736639,6.72339644 C58.0121241,6.12261855 58.7965965,5.56727852 59.8352095,5.22846089 C59.8853906,5.21209076 61.1098039,4.86670081 62.3679783,5.22846089 C64.0170222,5.71080765 65.0251933,6.85638123 65.3924918,8.6651816 L65.3924918,16.5442973 C65.3924918,17.2114144 65.0307637,17.7092775 64.3073075,17.7092775 C63.5838514,17.7092775 63.0634656,17.2114144 63.0634656,16.5442973 C63.0634656,12.2131774 63.0634656,10.0088589 63.0634656,9.93134187 C63.0634656,9.81506637 63.0634656,7.1762855 60.5588577,7.1762855 C59.8060718,7.1762855 58.3026236,7.72867869 57.4736639,9.84492954 Z M81.3396626,11.0340685 L81.3396626,17.2544417 C81.3396626,17.5055886 80.8538934,17.7091835 80.2546668,17.7091835 C79.6554401,17.7091835 79.1696709,17.5055886 79.1696709,17.2544417 L79.1696709,15.8026002 C77.9220367,16.9843735 76.2373818,17.7091835 74.3834828,17.7091835 C70.538445,17.7091835 67.4214261,14.5913476 67.4214261,10.745302 C67.4214261,6.89925651 70.538445,3.78142059 74.3834828,3.78142059 C78.2285205,3.78142059 81.3455394,6.89925651 81.3455394,10.745302 C81.3455394,10.8420308 81.3435678,10.938299 81.3396626,11.0340685 Z M91.5477535,9.58827061 L91.5477535,17.082692 C91.5477535,17.528699 91.0068525,17.890259 90.3396173,17.890259 C89.6723821,17.890259 89.1314811,17.528699 89.1314811,17.082692 L89.1314811,6.00958499 C89.1314811,5.56357805 89.6723821,5.20201799 90.3396173,5.20201799 C91.0068525,5.20201799 91.5477535,5.56357805 91.5477535,6.00958499 L91.5477535,7.02943052 C92.0022728,6.34883479 92.683714,5.72900632 93.6630183,5.40953645 C93.7131994,5.39316632 94.9376127,5.04777637 96.1957872,5.40953645 C97.844831,5.89188321 98.910521,6.91351237 99.3928571,8.47442391 L99.3928571,16.7253729 C99.3928571,17.39249 99.3928571,18.0714286 98.1268089,18.0714286 C96.8607606,18.0714286 96.8912745,17.39249 96.8912745,16.7253729 C96.8912745,12.3942529 96.8912745,10.1899344 96.8912745,10.1124174 C96.8912745,9.99614193 96.8912745,7.35736106 94.3866666,7.35736106 C93.5633679,7.35736106 92.3474808,7.76548594 91.5477535,9.58827061 Z M84.0520308,5.01851796 C84.0520308,4.53529849 84.5377999,4.14357171 85.1370266,4.14357171 C85.7362533,4.14357171 86.2220224,4.53529849 86.2220224,5.01851796 L86.2220224,17.0155083 C86.2220224,17.4987278 85.7362533,17.8904546 85.1370266,17.8904546 C84.5377999,17.8904546 84.0520308,17.4987278 84.0520308,17.0155083 L84.0520308,5.01851796 Z M86.2210391,2.74288822 C86.2210391,2.91762437 85.7357102,3.05927601 85.1370266,3.05927601 C84.538343,3.05927601 84.0530141,2.91762437 84.0530141,2.74288822 L84.0530141,1.20313429 C84.0530141,1.02839813 84.538343,0.886746494 85.1370266,0.886746494 C85.7357102,0.886746494 86.2210391,1.02839813 86.2210391,1.20313429 L86.2210391,2.74288822 Z M74.3834828,15.538623 C77.0300672,15.538623 79.1755477,13.3925801 79.1755477,10.745302 C79.1755477,8.09802395 77.0300672,5.95198104 74.3834828,5.95198104 C71.7368984,5.95198104 69.5914178,8.09802395 69.5914178,10.745302 C69.5914178,13.3925801 71.7368984,15.538623 74.3834828,15.538623 Z M34.0044064,4.65636684 C34.0044064,4.17314737 34.4901756,3.78142059 35.0894022,3.78142059 C35.6886289,3.78142059 36.1743981,4.17314737 36.1743981,4.65636684 L36.1743981,16.6533572 C36.1743981,17.1365767 35.6886289,17.5283035 35.0894022,17.5283035 C34.4901756,17.5283035 34.0044064,17.1365767 34.0044064,16.6533572 L34.0044064,4.65636684 Z M36.1734147,2.3807371 C36.1734147,2.55547325 35.6880858,2.69712489 35.0894022,2.69712489 C34.4907187,2.69712489 34.0053898,2.55547325 34.0053898,2.3807371 L34.0053898,0.840983168 C34.0053898,0.666247015 34.4907187,0.524595374 35.0894022,0.524595374 C35.6880858,0.524595374 36.1734147,0.666247015 36.1734147,0.840983168 L36.1734147,2.3807371 Z M26.5512769,16.628253 C26.5512769,17.2253424 26.0601358,17.709379 25.4542826,17.709379 C24.8484294,17.709379 24.3572883,17.2253424 24.3572883,16.628253 L24.3572883,9.68655136 C24.4926757,5.95436769 26.7321817,3.96249615 30.6744323,3.96249615 C31.2802855,3.96249615 31.7714266,4.44653273 31.7714266,5.04362211 C31.7714266,5.6407115 31.2802855,6.12474808 30.6744323,6.12474808 C27.8892363,6.12474808 26.6478713,7.22262834 26.5512769,9.70659462 L26.5512769,16.628253 Z M15.22524,17.7091835 C11.3802022,17.7091835 8.2631833,14.5913476 8.2631833,10.745302 C8.2631833,6.89925651 11.3802022,3.78142059 15.22524,3.78142059 C19.0702777,3.78142059 22.1872966,6.89925651 22.1872966,10.745302 C22.1872966,14.5913476 19.0702777,17.7091835 15.22524,17.7091835 Z M15.22524,15.538623 C17.8718244,15.538623 20.0173049,13.3925801 20.0173049,10.745302 C20.0173049,8.09802395 17.8718244,5.95198104 15.22524,5.95198104 C12.5786556,5.95198104 10.433175,8.09802395 10.433175,10.745302 C10.433175,13.3925801 12.5786556,15.538623 15.22524,15.538623 Z" id="path-1"></path>
        <radialGradient cx="13.4988839%" cy="-11.25%" fx="13.4988839%" fy="-11.25%" r="153.181114%" gradientTransform="translate(0.134989,-0.112500),scale(0.821480,1.000000),rotate(46.574138),translate(-0.134989,0.112500)" id="radialGradient-3">
            <stop stop-color="#FF8298" offset="0%"></stop>
            <stop stop-color="#FFA073" offset="100%"></stop>
        </radialGradient>
        <radialGradient cx="13.4988839%" cy="-11.25%" fx="13.4988839%" fy="-11.25%" r="141.691521%" gradientTransform="translate(0.134989,-0.112500),scale(0.985777,1.000000),rotate(51.735143),translate(-0.134989,0.112500)" id="radialGradient-4">
            <stop stop-color="#FF8298" offset="0%"></stop>
            <stop stop-color="#FFA073" offset="100%"></stop>
        </radialGradient>
        <linearGradient x1="135.598028%" y1="-54.7710062%" x2="12.9920938%" y2="72.2416065%" id="linearGradient-5">
            <stop stop-color="#F2C572" offset="0%"></stop>
            <stop stop-color="#FF9284" offset="100%"></stop>
        </linearGradient>
        <linearGradient x1="77.8545436%" y1="0%" x2="-44.7345898%" y2="170.501496%" id="linearGradient-6">
            <stop stop-color="#FF9284" offset="0%"></stop>
            <stop stop-color="#F2C572" offset="100%"></stop>
        </linearGradient>
    </defs>
    <g id="Logo-C-120x40" stroke="none" stroke-width="1" fill="none" fill-rule="evenodd">
        <g id="LOGO-Module" transform="translate(3.000000, 9.000000)">
            <g id="Storichain" transform="translate(15.607143, 2.464286)">
                <mask id="mask-2" fill="white">
                    <use xlink:href="#path-1"></use>
                </mask>
                <use id="logo" fill="#FFFFFF" fill-rule="nonzero" xlink:href="#path-1"></use>
                <rect id="bg" fill="#FAFAFA" mask="url(#mask-2)" x="-28.8303375" y="-9.73644315" width="136.771408" height="37.0771623"></rect>
                <rect id="bg" fill="url(#radialGradient-3)" mask="url(#mask-2)" x="32.7167959" y="-1.30981535" width="5.12892779" height="4.2133139"></rect>
                <rect id="bg" fill="url(#radialGradient-4)" mask="url(#mask-2)" x="83.1512525" y="0.375510204" width="3.41928519" height="3.37065112"></rect>
            </g>
            <g id="S-Symbol" fill-rule="nonzero">
                <g id="Mask">
                    <g transform="translate(-2.613636, -1.807143)" id="Oval">
                        <path d="M14.6927658,11.7101136 C14.9861351,12.3533604 14.7262057,13.1239626 14.1121974,13.4313018 C13.4981891,13.738641 12.7626143,13.4663341 12.4692451,12.8230873 C11.6921265,11.1191627 9.93692381,9.98231293 7.95292208,9.98231293 C5.21303775,9.98231293 3.02435065,12.1254197 3.02435065,14.7239116 C3.02435065,17.3224034 5.21303775,19.4655102 7.95292208,19.4655102 C8.63341579,19.4655102 9.18506494,20.0434284 9.18506494,20.7563265 C9.18506494,21.4692247 8.63341579,22.0471429 7.95292208,22.0471429 C3.88786931,22.0471429 0.560064935,18.7886413 0.560064935,14.7239116 C0.560064935,10.6591818 3.88786931,7.40068027 7.95292208,7.40068027 C10.8779471,7.40068027 13.5026916,9.10073471 14.6927658,11.7101136 Z" fill="url(#linearGradient-5)" transform="translate(7.686750, 14.723912) scale(-1, -1) translate(-7.686750, -14.723912) "></path>
                        <path d="M14.7060593,5.10579803 C14.9835404,5.75673621 14.7047796,6.52008032 14.0834295,6.81077481 C13.4620794,7.10146931 12.7334327,6.8094341 12.4559516,6.15849592 C11.6688364,4.31201588 9.91689361,3.09795918 7.95292208,3.09795918 C5.23094724,3.09795918 3.02435065,5.4096318 3.02435065,8.26122449 C3.02435065,11.1128172 5.23094724,13.4244898 7.95292208,13.4244898 C8.63341579,13.4244898 9.18506494,14.002408 9.18506494,14.7153061 C9.18506494,15.4282043 8.63341579,16.0061224 7.95292208,16.0061224 C3.86995982,16.0061224 0.560064935,12.5386135 0.560064935,8.26122449 C0.560064935,3.98383546 3.86995982,0.516326531 7.95292208,0.516326531 C10.8979773,0.516326531 13.5259816,2.33747406 14.7060593,5.10579803 Z" fill="url(#linearGradient-6)"></path>
                    </g>
                </g>
            </g>
        </g>
    </g>
</svg>