<?xml version="1.0" encoding="UTF-8"?>
<svg width="120px" height="40px" viewBox="0 0 120 40" version="1.1" xmlns="http://www.w3.org/2000/svg" xmlns:xlink="http://www.w3.org/1999/xlink">
    <!-- Generator: Sketch 52 (66869) - http://www.bohemiancoding.com/sketch -->
    <title>Logo B 120x40</title>
    <desc>Created with Sketch.</desc>
    <defs>
        <path d="M19.939637,10.9694767 L19.939637,10.9717327 L17.880362,10.9717327 C17.8584055,10.9717327 17.8366627,10.972967 17.8151696,10.975387 L17.8151696,4.71632405 C17.8151696,4.13553141 18.2907478,3.66470595 18.8774033,3.66470595 C19.4640588,3.66470595 19.939637,4.13553141 19.939637,4.71632405 L19.939637,8.88239935 L23.5919953,8.88239935 C24.0193701,8.88239935 24.3658259,9.34960753 24.3658259,9.92593803 C24.3658259,10.5022685 24.0193701,10.9694767 23.5919953,10.9694767 L19.939637,10.9694767 Z M19.939637,13.0588101 L19.939637,19.1357836 C19.939637,19.7165762 19.4640588,20.1874017 18.8774033,20.1874017 C18.2907478,20.1874017 17.8151696,19.7165762 17.8151696,19.1357836 L17.8151696,13.0551558 C17.8366627,13.0575758 17.8584055,13.0588101 17.880362,13.0588101 L19.939637,13.0588101 Z M69.4906841,11.1238552 C69.5201265,11.2711613 69.5414694,11.4042429 69.5414694,11.491246 C69.5414694,11.8390923 69.187236,12.0130154 69.0101193,12.0130154 C68.8330026,12.0130154 68.4787692,12.0130154 68.1245358,12.0130154 C67.7703024,12.0130154 67.5931857,11.6651692 67.416069,11.491246 C67.3579263,11.4341517 67.2898785,11.3201413 67.2154147,11.1991142 C66.4345959,9.71948286 64.8613147,8.70847624 63.04767,8.70847624 C60.4566083,8.70847624 58.3561378,10.771979 58.3561378,13.3174387 C58.3561378,15.8628984 60.4566083,17.9264012 63.04767,17.9264012 C64.8581085,17.9264012 66.4290325,16.918966 67.2112662,15.4436061 C67.3670141,15.2599409 67.5147951,15.0466855 67.5931857,14.9697083 C67.7703024,14.7957852 68.1245358,14.7957852 68.4787692,14.7957852 C68.8330026,14.7957852 69.0101193,14.7957852 69.187236,14.9697083 C69.3461758,15.1257823 69.5051156,15.4219129 69.4080737,15.732417 C69.394779,15.7661807 69.3812138,15.7998121 69.3673806,15.8333086 C69.3663829,15.8353136 69.3653737,15.8373187 69.3643527,15.8393239 C68.3510153,18.2875207 65.9050963,20.0134786 63.0488363,20.0134786 C59.2844637,20.0134786 56.2328367,17.0155594 56.2328367,13.3174387 C56.2328367,9.61931804 59.2844637,6.62139888 63.0488363,6.62139888 C66.0311625,6.62139888 68.5661262,8.50307562 69.4906841,11.1238552 Z M73.9602304,12.6256191 L73.9602304,19.1357836 C73.9602304,19.7165762 73.4846522,20.1874017 72.8979967,20.1874017 C72.3113412,20.1874017 71.835763,19.7165762 71.835763,19.1357836 L71.835763,4.71632405 C71.835763,4.13553141 72.3113412,3.66470595 72.8979967,3.66470595 C73.4846522,3.66470595 73.9602304,4.13553141 73.9602304,4.71632405 L73.9602304,9.62414493 C74.4873942,9.04647388 75.2554091,8.51249308 76.2722331,8.1867069 C76.3213614,8.17096639 77.5200877,7.83886067 78.7518669,8.1867069 C80.3663154,8.65050187 81.3533361,9.75201492 81.712929,11.491246 L81.712929,19.0673189 C81.712929,19.7087776 81.3587896,20.1874921 80.6505109,20.1874921 C79.9422321,20.1874921 79.4327636,19.7087776 79.4327636,19.0673189 C79.4327636,14.9027804 79.4327636,12.7832434 79.4327636,12.7087078 C79.4327636,12.5969045 79.4327636,10.0596152 76.9806999,10.0596152 C76.2437067,10.0596152 74.7717993,10.5907625 73.9602304,12.6256191 Z M97.3255438,13.7690219 L97.3255438,19.75015 C97.3255438,19.9916374 96.8499656,20.1874017 96.2633101,20.1874017 C95.6766546,20.1874017 95.2010764,19.9916374 95.2010764,19.75015 L95.2010764,18.3541486 C93.9796163,19.490469 92.3303038,20.1874017 90.5152978,20.1874017 C86.7509252,20.1874017 83.6992983,17.1894825 83.6992983,13.4913618 C83.6992983,9.79324115 86.7509252,6.79532199 90.5152978,6.79532199 C94.2796704,6.79532199 97.3312974,9.79324115 97.3312974,13.4913618 C97.3312974,13.5843703 97.3293671,13.6769358 97.3255438,13.7690219 Z M107.319479,12.3788316 L107.319479,19.5850061 C107.319479,20.0138589 106.789925,20.3615128 106.136688,20.3615128 C105.483451,20.3615128 104.953898,20.0138589 104.953898,19.5850061 L104.953898,8.93778777 C104.953898,8.50893494 105.483451,8.16128104 106.136688,8.16128104 C106.789925,8.16128104 107.319479,8.50893494 107.319479,8.93778777 L107.319479,9.91840846 C107.764463,9.2639895 108.431608,8.66800058 109.390368,8.36081801 C109.439496,8.3450775 110.638222,8.01297179 111.870001,8.36081801 C113.48445,8.82461298 114.527783,9.80694871 115,11.3078252 L115,19.24143 C115,19.8828887 115,20.5357143 113.760512,20.5357143 C112.521024,20.5357143 112.550898,19.8828887 112.550898,19.24143 C112.550898,15.0768915 112.550898,12.9573545 112.550898,12.882819 C112.550898,12.7710156 112.550898,10.2337263 110.098834,10.2337263 C109.292808,10.2337263 108.102429,10.6261541 107.319479,12.3788316 Z M99.9810091,7.9848387 C99.9810091,7.52020459 100.456587,7.14354422 101.043243,7.14354422 C101.629898,7.14354422 102.105477,7.52020459 102.105477,7.9848387 L102.105477,19.5204063 C102.105477,19.9850405 101.629898,20.3617008 101.043243,20.3617008 C100.456587,20.3617008 99.9810091,19.9850405 99.9810091,19.5204063 L99.9810091,7.9848387 Z M102.104514,5.79673318 C102.104514,5.96474871 101.629367,6.10095221 101.043243,6.10095221 C100.457119,6.10095221 99.9819719,5.96474871 99.9819719,5.79673318 L99.9819719,4.31620055 C99.9819719,4.14818502 100.457119,4.01198152 101.043243,4.01198152 C101.629367,4.01198152 102.104514,4.14818502 102.104514,4.31620055 L102.104514,5.79673318 Z M90.5152978,18.1003243 C93.1063595,18.1003243 95.20683,16.0368215 95.20683,13.4913618 C95.20683,10.9459021 93.1063595,8.88239935 90.5152978,8.88239935 C87.9242362,8.88239935 85.8237657,10.9459021 85.8237657,13.4913618 C85.8237657,16.0368215 87.9242362,18.1003243 90.5152978,18.1003243 Z M50.9833349,7.63661647 C50.9833349,7.17198236 51.4589131,6.79532199 52.0455686,6.79532199 C52.6322241,6.79532199 53.1078023,7.17198236 53.1078023,7.63661647 L53.1078023,19.1721841 C53.1078023,19.6368182 52.6322241,20.0134786 52.0455686,20.0134786 C51.4589131,20.0134786 50.9833349,19.6368182 50.9833349,19.1721841 L50.9833349,7.63661647 Z M53.1068395,5.44851095 C53.1068395,5.61652648 52.6316924,5.75272998 52.0455686,5.75272998 C51.4594448,5.75272998 50.9842977,5.61652648 50.9842977,5.44851095 L50.9842977,3.96797832 C50.9842977,3.79996279 51.4594448,3.66375929 52.0455686,3.66375929 C52.6316924,3.66375929 53.1068395,3.79996279 53.1068395,3.96797832 L53.1068395,5.44851095 Z M43.6865648,19.1480455 C43.6865648,19.7221699 43.2057274,20.1875897 42.6125844,20.1875897 C42.0194414,20.1875897 41.538604,19.7221699 41.538604,19.1480455 L41.538604,12.4733324 C41.6711511,8.8846942 43.8636744,6.96943311 47.7232204,6.96943311 C48.3163634,6.96943311 48.7972009,7.4348529 48.7972009,8.00897731 C48.7972009,8.58310171 48.3163634,9.04852151 47.7232204,9.04852151 C44.9964551,9.04852151 43.7811327,10.1041756 43.6865648,12.4926047 L43.6865648,19.1480455 Z M32.598137,20.1874017 C28.8337644,20.1874017 25.7821375,17.1894825 25.7821375,13.4913618 C25.7821375,9.79324115 28.8337644,6.79532199 32.598137,6.79532199 C36.3625096,6.79532199 39.4141366,9.79324115 39.4141366,13.4913618 C39.4141366,17.1894825 36.3625096,20.1874017 32.598137,20.1874017 Z M32.598137,18.1003243 C35.1891987,18.1003243 37.2896692,16.0368215 37.2896692,13.4913618 C37.2896692,10.9459021 35.1891987,8.88239935 32.598137,8.88239935 C30.0070754,8.88239935 27.9066049,10.9459021 27.9066049,13.4913618 C27.9066049,16.0368215 30.0070754,18.1003243 32.598137,18.1003243 Z M0.480682082,16.3303499 C0.198402418,15.7246954 0.448506238,14.9991285 1.0393046,14.7097506 C1.63010296,14.4203728 2.33787254,14.6767657 2.62015221,15.2824202 C3.36789516,16.8867647 5.05675002,17.9571752 6.96575512,17.9571752 C9.60206994,17.9571752 11.7080232,15.9393149 11.7080232,13.492683 C11.7080232,11.0460511 9.60206994,9.02819078 6.96575512,9.02819078 C6.31098454,9.02819078 5.78018811,8.48404706 5.78018811,7.81281177 C5.78018811,7.14157647 6.31098454,6.59743276 6.96575512,6.59743276 C10.8771461,6.59743276 14.0791572,9.66550238 14.0791572,13.492683 C14.0791572,17.3198636 10.8771461,20.3879332 6.96575512,20.3879332 C4.1512981,20.3879332 1.62577074,18.7872326 0.480682082,16.3303499 Z M13.9758408,4.46460676 C14.2428329,5.0775031 13.9746094,5.79623618 13.3767468,6.06994204 C12.7788842,6.3436479 12.0777809,6.06867968 11.8107887,5.45578335 C11.053427,3.71721448 9.36770885,2.57410914 7.47797679,2.57410914 C4.85889448,2.57410914 2.73570875,4.75068401 2.73570875,7.43562518 C2.73570875,10.1205663 4.85889448,12.2971412 7.47797679,12.2971412 C8.13274737,12.2971412 8.66354381,12.8412849 8.66354381,13.5125202 C8.66354381,14.1837555 8.13274737,14.7278992 7.47797679,14.7278992 C3.54935332,14.7278992 0.364574733,11.4630369 0.364574733,7.43562518 C0.364574733,3.40821343 3.54935332,0.143351125 7.47797679,0.143351125 C10.3117069,0.143351125 12.8403709,1.85806795 13.9758408,4.46460676 Z" id="path-1"></path>
        <radialGradient cx="13.4988839%" cy="-11.25%" fx="13.4988839%" fy="-11.25%" r="154.503447%" gradientTransform="translate(0.134989,-0.112500),scale(0.806811,1.000000),rotate(46.058498),translate(-0.134989,0.112500)" id="radialGradient-3">
            <stop stop-color="#FF8298" offset="0%"></stop>
            <stop stop-color="#FFA073" offset="100%"></stop>
        </radialGradient>
        <radialGradient cx="13.4988839%" cy="-11.25%" fx="13.4988839%" fy="-11.25%" r="142.685072%" gradientTransform="translate(0.134989,-0.112500),scale(0.968173,1.000000),rotate(51.232122),translate(-0.134989,0.112500)" id="radialGradient-4">
            <stop stop-color="#FF8298" offset="0%"></stop>
            <stop stop-color="#FFA073" offset="100%"></stop>
        </radialGradient>
    </defs>
    <g id="Logo-B-120x40" stroke="none" stroke-width="1" fill="none" fill-rule="evenodd">
        <g id="LOGO-Module" transform="translate(2.000000, 8.000000)">
            <g id="Storichain">
                <mask id="mask-2" fill="white">
                    <use xlink:href="#path-1"></use>
                </mask>
                <use id="logo" fill="#FFFFFF" fill-rule="nonzero" xlink:href="#path-1"></use>
                <rect id="bg" fill="#FAFAFA" mask="url(#mask-2)" x="-10.5331975" y="-6.20262391" width="133.902077" height="35.6511176"></rect>
                <rect id="bg" fill="url(#radialGradient-3)" mask="url(#mask-2)" x="49.7227373" y="1.89990282" width="5.0213279" height="4.05126336"></rect>
                <rect id="bg" fill="url(#radialGradient-4)" mask="url(#mask-2)" x="99.0991283" y="3.52040816" width="3.34755193" height="3.24101069"></rect>
            </g>
        </g>
    </g>
</svg>