<?xml version="1.0" encoding="UTF-8"?>
<svg width="120px" height="40px" viewBox="0 0 120 40" version="1.1" xmlns="http://www.w3.org/2000/svg" xmlns:xlink="http://www.w3.org/1999/xlink">
    <!-- Generator: Sketch 52 (66869) - http://www.bohemiancoding.com/sketch -->
    <title>Logo D 120x40</title>
    <desc>Created with Sketch.</desc>
    <defs>
        <path d="M2.88714699,7.88015407 L2.88714699,7.88254065 L0.805072095,7.88254065 C0.782872509,7.88254065 0.760888967,7.88384639 0.739157908,7.88640641 L0.739157908,1.26512481 C0.739157908,0.650721088 1.22000164,0.152648458 1.81315245,0.152648458 C2.40630326,0.152648458 2.88714699,0.650721088 2.88714699,1.26512481 L2.88714699,5.67229532 L6.57994349,5.67229532 C7.01205014,5.67229532 7.36234179,6.16654134 7.36234179,6.7762247 C7.36234179,7.38590806 7.01205014,7.88015407 6.57994349,7.88015407 L2.88714699,7.88015407 Z M2.88714699,10.0903994 L2.88714699,16.5190538 C2.88714699,17.1334576 2.40630326,17.6315302 1.81315245,17.6315302 C1.22000164,17.6315302 0.739157908,17.1334576 0.739157908,16.5190538 L0.739157908,10.0865336 C0.760888967,10.0890937 0.782872509,10.0903994 0.805072095,10.0903994 L2.88714699,10.0903994 Z M52.9868137,8.04346659 C53.0165821,8.19929747 53.0381613,8.34008064 53.0381613,8.43211876 C53.0381613,8.80009522 52.6800059,8.98408344 52.5009282,8.98408344 C52.3218505,8.98408344 51.9636951,8.98408344 51.6055397,8.98408344 C51.2473843,8.98408344 51.0683066,8.61610699 50.8892289,8.43211876 C50.8304425,8.37172032 50.7616413,8.25111198 50.686353,8.12308091 C49.8968891,6.55782175 48.3061889,5.4883071 46.4724638,5.4883071 C43.8527144,5.4883071 41.7289879,7.671227 41.7289879,10.3639952 C41.7289879,13.0567633 43.8527144,15.2396832 46.4724638,15.2396832 C48.3029471,15.2396832 49.8912641,14.1739467 50.6821586,12.6132061 C50.8396309,12.418912 50.989048,12.1933153 51.0683066,12.1118833 C51.2473843,11.9278951 51.6055397,11.9278951 51.9636951,11.9278951 C52.3218505,11.9278951 52.5009282,11.9278951 52.6800059,12.1118833 C52.8407055,12.2769895 53.001405,12.5902575 52.9032886,12.9187308 C52.8898468,12.9544485 52.8761314,12.9900261 52.862145,13.0254611 C52.8611363,13.0275821 52.8601159,13.0297033 52.8590836,13.0318245 C51.8345267,15.6217011 49.3615269,17.447542 46.473643,17.447542 C42.667592,17.447542 39.582178,14.27613 39.582178,10.3639952 C39.582178,6.45186028 42.667592,3.28044835 46.473643,3.28044835 C49.488989,3.28044835 52.0520193,5.27101972 52.9868137,8.04346659 Z M57.505846,9.63213915 L57.505846,16.5190538 C57.505846,17.1334576 57.0250023,17.6315302 56.4318514,17.6315302 C55.8387006,17.6315302 55.3578569,17.1334576 55.3578569,16.5190538 L55.3578569,1.26512481 C55.3578569,0.650721088 55.8387006,0.152648458 56.4318514,0.152648458 C57.0250023,0.152648458 57.505846,0.650721088 57.505846,1.26512481 L57.505846,6.45696651 C58.0388465,5.84586503 58.8153647,5.28098218 59.8434467,4.93634241 C59.893119,4.91969098 61.1051174,4.56836595 62.3505345,4.93634241 C63.9828579,5.42697769 64.9808068,6.59223647 65.344381,8.43211876 L65.344381,16.446627 C65.344381,17.1252076 64.9863206,17.6316258 64.2702,17.6316258 C63.5540793,17.6316258 63.03897,17.1252076 63.03897,16.446627 C63.03897,12.0410823 63.03897,9.79888539 63.03897,9.72003636 C63.03897,9.60176282 63.03897,6.91763789 60.5597575,6.91763789 C59.8146045,6.91763789 58.3264004,7.47952324 57.505846,9.63213915 Z M81.1298556,10.8417119 L81.1298556,17.1689742 C81.1298556,17.4244368 80.6490119,17.6315302 80.0558611,17.6315302 C79.4627103,17.6315302 78.9818665,17.4244368 78.9818665,17.1689742 L78.9818665,15.6921847 C77.7468827,16.8942653 76.0793093,17.6315302 74.2442079,17.6315302 C70.4381569,17.6315302 67.3527429,14.4601183 67.3527429,10.5479834 C67.3527429,6.63584851 70.4381569,3.46443658 74.2442079,3.46443658 C78.0502589,3.46443658 81.1356729,6.63584851 81.1356729,10.5479834 C81.1356729,10.6463743 81.1337213,10.7442967 81.1298556,10.8417119 Z M91.2344417,9.37106986 L91.2344417,16.9942733 C91.2344417,17.4479443 90.6990251,17.8157173 90.0385554,17.8157173 C89.3780856,17.8157173 88.842669,17.4479443 88.842669,16.9942733 L88.842669,5.73088913 C88.842669,5.27721813 89.3780856,4.90944512 90.0385554,4.90944512 C90.6990251,4.90944512 91.2344417,5.27721813 91.2344417,5.73088913 L91.2344417,6.76825939 C91.6843524,6.0759685 92.3588842,5.44548907 93.3282588,5.12052952 C93.3779311,5.10387809 94.5899295,4.75255306 95.8353467,5.12052952 C97.4676701,5.6111648 98.5225545,6.65034934 99,8.23808314 L99,16.6308141 C99,17.3093947 99,18 97.7467888,18 C96.4935776,18 96.5237821,17.3093947 96.5237821,16.6308141 C96.5237821,12.2252694 96.5237821,9.9830725 96.5237821,9.90422347 C96.5237821,9.78594993 96.5237821,7.101825 94.0445697,7.101825 C93.2296188,7.101825 92.0260602,7.51696298 91.2344417,9.37106986 Z M83.8147218,4.72279188 C83.8147218,4.2312689 84.2955655,3.8328108 84.8887163,3.8328108 C85.4818671,3.8328108 85.9627108,4.2312689 85.9627108,4.72279188 L85.9627108,16.9259351 C85.9627108,17.4174581 85.4818671,17.8159162 84.8887163,17.8159162 C84.2955655,17.8159162 83.8147218,17.4174581 83.8147218,16.9259351 L83.8147218,4.72279188 Z M85.9617374,2.40805836 C85.9617374,2.58579713 85.4813295,2.72988288 84.8887163,2.72988288 C84.2961031,2.72988288 83.8156952,2.58579713 83.8156952,2.40805836 L83.8156952,0.84184574 C83.8156952,0.66410697 84.2961031,0.520021228 84.8887163,0.520021228 C85.4813295,0.520021228 85.9617374,0.66410697 85.9617374,0.84184574 L85.9617374,2.40805836 Z M74.2442079,15.4236715 C76.8639573,15.4236715 78.9876838,13.2407516 78.9876838,10.5479834 C78.9876838,7.85521523 76.8639573,5.67229532 74.2442079,5.67229532 C71.6244585,5.67229532 69.500732,7.85521523 69.500732,10.5479834 C69.500732,13.2407516 71.6244585,15.4236715 74.2442079,15.4236715 Z M33.675208,4.35441766 C33.675208,3.86289468 34.1560518,3.46443658 34.7492026,3.46443658 C35.3423534,3.46443658 35.8231971,3.86289468 35.8231971,4.35441766 L35.8231971,16.5575609 C35.8231971,17.0490839 35.3423534,17.447542 34.7492026,17.447542 C34.1560518,17.447542 33.675208,17.0490839 33.675208,16.5575609 L33.675208,4.35441766 Z M35.8222237,2.03968414 C35.8222237,2.21742291 35.3418158,2.36150866 34.7492026,2.36150866 C34.1565894,2.36150866 33.6761815,2.21742291 33.6761815,2.03968414 L33.6761815,0.473471519 C33.6761815,0.295732749 34.1565894,0.151647007 34.7492026,0.151647007 C35.3418158,0.151647007 35.8222237,0.295732749 35.8222237,0.473471519 L35.8222237,2.03968414 Z M26.8969962,16.5320254 C26.8969962,17.139375 26.4108351,17.6317291 25.8111249,17.6317291 C25.2114147,17.6317291 24.7252535,17.139375 24.7252535,16.5320254 L24.7252535,9.47103945 C24.8592682,5.67472298 27.0760667,3.64862369 30.9783449,3.64862369 C31.5780551,3.64862369 32.0642162,4.14097782 32.0642162,4.74832742 C32.0642162,5.35567702 31.5780551,5.84803115 30.9783449,5.84803115 C28.2213894,5.84803115 26.9926111,6.96477707 26.8969962,9.49142712 L26.8969962,16.5320254 Z M15.6857995,17.6315302 C11.8797485,17.6315302 8.79433451,14.4601183 8.79433451,10.5479834 C8.79433451,6.63584851 11.8797485,3.46443658 15.6857995,3.46443658 C19.4918505,3.46443658 22.5772645,6.63584851 22.5772645,10.5479834 C22.5772645,14.4601183 19.4918505,17.6315302 15.6857995,17.6315302 Z M15.6857995,15.4236715 C18.3055489,15.4236715 20.4292754,13.2407516 20.4292754,10.5479834 C20.4292754,7.85521523 18.3055489,5.67229532 15.6857995,5.67229532 C13.0660501,5.67229532 10.9423236,7.85521523 10.9423236,10.5479834 C10.9423236,13.2407516 13.0660501,15.4236715 15.6857995,15.4236715 Z" id="path-1"></path>
        <radialGradient cx="13.4988839%" cy="-11.25%" fx="13.4988839%" fy="-11.25%" r="151.250708%" gradientTransform="translate(0.134989,-0.112500),scale(0.844156,1.000000),rotate(47.352336),translate(-0.134989,0.112500)" id="radialGradient-3">
            <stop stop-color="#FF8298" offset="0%"></stop>
            <stop stop-color="#FFA073" offset="100%"></stop>
        </radialGradient>
        <radialGradient cx="13.4988839%" cy="-11.25%" fx="13.4988839%" fy="-11.25%" r="142.065345%" gradientTransform="translate(0.134989,-0.112500),scale(1.000000,0.987179),rotate(52.491249),translate(-0.134989,0.112500)" id="radialGradient-4">
            <stop stop-color="#FF8298" offset="0%"></stop>
            <stop stop-color="#FFA073" offset="100%"></stop>
        </radialGradient>
        <radialGradient cx="13.4988839%" cy="-11.25%" fx="13.4988839%" fy="-11.25%" r="203.689405%" gradientTransform="translate(0.134989,-0.112500),scale(1.000000,0.603276),rotate(64.870118),translate(-0.134989,0.112500)" id="radialGradient-5">
            <stop stop-color="#FF8298" offset="0%"></stop>
            <stop stop-color="#FFA073" offset="100%"></stop>
        </radialGradient>
        <linearGradient x1="135.598028%" y1="-54.7710062%" x2="12.9920938%" y2="72.2416065%" id="linearGradient-6">
            <stop stop-color="#F2C572" offset="0%"></stop>
            <stop stop-color="#FF9284" offset="100%"></stop>
        </linearGradient>
        <linearGradient x1="77.8545436%" y1="0%" x2="-44.7345898%" y2="170.501496%" id="linearGradient-7">
            <stop stop-color="#FF9284" offset="0%"></stop>
            <stop stop-color="#F2C572" offset="100%"></stop>
        </linearGradient>
    </defs>
    <g id="Logo-D-120x40" stroke="none" stroke-width="1" fill="none" fill-rule="evenodd">
        <g id="Group" transform="translate(3.000000, 9.000000)">
            <g id="torichain" transform="translate(16.000000, 3.000000)">
                <mask id="mask-2" fill="white">
                    <use xlink:href="#path-1"></use>
                </mask>
                <use id="logo" fill="#FFFFFF" fill-rule="nonzero" xlink:href="#path-1"></use>
                <rect id="bg" fill="#37404A" mask="url(#mask-2)" x="-27.9230769" y="-10.2857143" width="135.384615" height="37.7142857"></rect>
                <rect id="bg" fill="url(#radialGradient-3)" mask="url(#mask-2)" x="33" y="-1.71428571" width="5.07692308" height="4.28571429"></rect>
                <rect id="bg" fill="url(#radialGradient-4)" mask="url(#mask-2)" x="82.9230769" y="0" width="3.38461538" height="3.42857143"></rect>
                <rect id="bg" fill="url(#radialGradient-5)" mask="url(#mask-2)" x="-22" y="-9.42857143" width="18.6153846" height="30.8571429"></rect>
            </g>
            <g id="S-Symbol" fill-rule="nonzero">
                <g id="Mask">
                    <g transform="translate(-2.651515, -1.800000)" id="Oval">
                        <path d="M14.9057045,11.6638286 C15.2033254,12.3045329 14.939629,13.0720892 14.316722,13.3782136 C13.6938151,13.684338 12.9475798,13.4131074 12.6499588,12.7724031 C11.8615776,11.0752134 10.0809372,9.94285714 8.06818182,9.94285714 C5.28858902,9.94285714 3.06818182,12.0774932 3.06818182,14.6657143 C3.06818182,17.2539354 5.28858902,19.3885714 8.06818182,19.3885714 C8.75853776,19.3885714 9.31818182,19.9642053 9.31818182,20.6742857 C9.31818182,21.3843661 8.75853776,21.96 8.06818182,21.96 C3.94421524,21.96 0.568181818,18.7143779 0.568181818,14.6657143 C0.568181818,10.6170506 3.94421524,7.37142857 8.06818182,7.37142857 C11.0355985,7.37142857 13.6983827,9.06476343 14.9057045,11.6638286 Z" fill="url(#linearGradient-6)" transform="translate(7.798152, 14.665714) scale(-1, -1) translate(-7.798152, -14.665714) "></path>
                        <path d="M14.9191906,5.08561701 C15.2006932,5.73398231 14.9178923,6.49430925 14.2875371,6.78385475 C13.657182,7.07340026 12.9179752,6.78251934 12.6364727,6.13415404 C11.83795,4.29497234 10.0606167,3.08571429 8.06818182,3.08571429 C5.30675807,3.08571429 3.06818182,5.38824986 3.06818182,8.22857143 C3.06818182,11.068893 5.30675807,13.3714286 8.06818182,13.3714286 C8.75853776,13.3714286 9.31818182,13.9470625 9.31818182,14.6571429 C9.31818182,15.3672232 8.75853776,15.9428571 8.06818182,15.9428571 C3.92604619,15.9428571 0.568181818,12.4890538 0.568181818,8.22857143 C0.568181818,3.96808907 3.92604619,0.514285714 8.06818182,0.514285714 C11.0559189,0.514285714 13.7220104,2.32823503 14.9191906,5.08561701 Z" fill="url(#linearGradient-7)"></path>
                    </g>
                </g>
            </g>
        </g>
    </g>
</svg>