<svg width="98" height="20" viewBox="0 0 98 20" fill="none" xmlns="http://www.w3.org/2000/svg">
<path fill-rule="evenodd" clip-rule="evenodd" d="M46.9558 6.20822C47.4284 6.20822 47.8116 6.09035 47.8116 5.94495V4.66367C47.8116 4.51826 47.4284 4.40039 46.9558 4.40039C46.4832 4.40039 46.1001 4.51826 46.1001 4.66367V5.94495C46.1001 6.09035 46.4832 6.20822 46.9558 6.20822ZM62.9131 5.31147C62.9131 4.80884 63.2965 4.40138 63.7696 4.40138C64.2426 4.40138 64.6261 4.80884 64.6261 5.31147V9.55815C65.0512 9.05823 65.6704 8.59612 66.4903 8.31419C66.5299 8.30056 67.4965 8.01315 68.4897 8.31419C70.4424 8.91625 70.8773 11.174 70.8773 11.174V17.7305C70.8773 18.2856 70.5918 18.6999 70.0206 18.6999C69.4495 18.6999 69.0387 18.2856 69.0387 17.7305V12.2276C69.0387 12.1308 69.0387 9.93503 67.0616 9.93503C66.4673 9.93503 65.2805 10.3947 64.6261 12.1556V17.7903C64.6261 18.293 64.2426 18.7004 63.7696 18.7004C63.2965 18.7004 62.9131 18.293 62.9131 17.7903V5.31147ZM86.4639 6.50718C86.9365 6.50718 87.3197 6.38931 87.3197 6.24391V4.96263C87.3197 4.81722 86.9365 4.69935 86.4639 4.69935C85.9913 4.69935 85.6082 4.81722 85.6082 4.96263V6.24391C85.6082 6.38931 85.9913 6.50718 86.4639 6.50718ZM85.6074 8.13802C85.6074 7.73592 85.9909 7.40995 86.4639 7.40995C86.9369 7.40995 87.3204 7.73592 87.3204 8.13802V18.1211C87.3204 18.5232 86.9369 18.8492 86.4639 18.8492C85.9909 18.8492 85.6074 18.5232 85.6074 18.1211V8.13802ZM90.5708 8.28978C90.044 8.28978 89.617 8.59065 89.617 8.96178V18.1761C89.617 18.5472 90.044 18.8481 90.5708 18.8481C91.0975 18.8481 91.5245 18.5472 91.5245 18.1761V11.9406C92.1558 10.4232 93.1158 10.0835 93.7658 10.0835C95.743 10.0835 95.743 12.2794 95.743 12.3761V17.879L95.743 17.9173C95.7424 18.4598 95.7419 18.9991 96.7183 18.9991C97.7178 18.9991 97.7178 18.4341 97.7178 17.879V11.0131C97.7178 11.0131 97.1466 9.06476 95.194 8.46269C94.2007 8.16166 93.2342 8.44907 93.1945 8.46269C92.4213 8.7286 91.8833 9.24455 91.5245 9.81106V8.96178C91.5245 8.59065 91.0975 8.28978 90.5708 8.28978ZM77.9749 18.6986C74.9396 18.6986 72.479 16.1042 72.479 12.9038C72.479 9.70336 74.9396 7.1089 77.9749 7.1089C81.0103 7.1089 83.4709 9.70336 83.4709 12.9038C83.4709 12.9848 83.4693 13.0654 83.4662 13.1456V18.3195C83.4662 18.5285 83.0827 18.6979 82.6097 18.6979C82.1366 18.6979 81.7531 18.5285 81.7531 18.3195V17.1122C80.7683 18.0955 79.4384 18.6986 77.9749 18.6986ZM77.975 16.8926C80.0643 16.8926 81.758 15.1068 81.758 12.9039C81.758 10.701 80.0643 8.9152 77.975 8.9152C75.8858 8.9152 74.1921 10.701 74.1921 12.9039C74.1921 15.1068 75.8858 16.8926 77.975 16.8926ZM50.332 12.7553C50.332 15.9557 52.7926 18.5501 55.8279 18.5501C58.1311 18.5501 60.1033 17.0564 60.9208 14.9377L60.9203 14.9377L60.923 14.9321C60.934 14.9033 60.9448 14.8745 60.9555 14.8456C61.034 14.5767 60.9057 14.3202 60.7775 14.1851C60.6347 14.0346 60.4919 14.0346 60.2063 14.0346C59.9206 14.0346 59.635 14.0346 59.4922 14.1851C59.4583 14.2208 59.4083 14.2905 59.3499 14.3719L59.3498 14.3719C59.2992 14.4424 59.2423 14.5217 59.184 14.5955C58.5532 15.8722 57.2866 16.744 55.8268 16.744C53.7376 16.744 52.0439 14.9582 52.0439 12.7554C52.0439 10.5525 53.7376 8.76667 55.8268 8.76667C57.2881 8.76667 58.5558 9.64021 59.1859 10.919L59.2015 10.9462L59.2015 10.9463L59.2015 10.9464L59.2016 10.9464C59.2562 11.0418 59.3062 11.1292 59.3494 11.1748C59.3831 11.2103 59.4168 11.2542 59.4524 11.3006C59.5676 11.4506 59.7024 11.6263 59.9206 11.6263H60.6347C60.7775 11.6263 61.0631 11.4758 61.0631 11.1748C61.0631 11.0995 61.046 10.9844 61.0222 10.857C60.2767 8.58886 58.2327 6.9604 55.8279 6.9604C52.7926 6.9604 50.332 9.55485 50.332 12.7553ZM46.0991 7.83896C46.0991 7.43686 46.4826 7.11089 46.9556 7.11089C47.4286 7.11089 47.8121 7.43686 47.8121 7.83896V17.8221C47.8121 18.2242 47.4286 18.5501 46.9556 18.5501C46.4826 18.5501 46.0991 18.2242 46.0991 17.8221V7.83896ZM40.2156 17.801C40.2156 18.2979 39.8279 18.7006 39.3496 18.7006C38.8713 18.7006 38.4836 18.2979 38.4836 17.801V12.0246C38.5905 8.91892 40.3584 7.26142 43.4705 7.26142C43.9487 7.26142 44.3364 7.6642 44.3364 8.16106C44.3364 8.65791 43.9487 9.0607 43.4705 9.0607C41.2718 9.0607 40.2918 9.97428 40.2156 12.0413V17.801ZM25.7788 12.9058C25.7788 16.1062 28.2394 18.7006 31.2747 18.7006C34.3101 18.7006 36.7707 16.1062 36.7707 12.9058C36.7707 9.70534 34.3101 7.11089 31.2747 7.11089C28.2394 7.11089 25.7788 9.70534 25.7788 12.9058ZM31.2746 16.8945C33.3638 16.8945 35.0575 15.1087 35.0575 12.9059C35.0575 10.703 33.3638 8.91719 31.2746 8.91719C29.1853 8.91719 27.4917 10.703 27.4917 12.9059C27.4917 15.1087 29.1853 16.8945 31.2746 16.8945ZM20.2114 4.40145C19.7383 4.40145 19.3549 4.80891 19.3549 5.31154V10.7288C19.3722 10.7267 19.3897 10.7256 19.4074 10.7256H21.0679V10.7223H24.0129C24.3575 10.7223 24.6368 10.318 24.6368 9.81922C24.6368 9.32046 24.3575 8.91613 24.0129 8.91613H21.0679V5.31154C21.0679 4.80891 20.6844 4.40145 20.2114 4.40145ZM19.3549 17.7904V12.5286C19.3722 12.5307 19.3897 12.5318 19.4074 12.5318H21.0679V17.7904C21.0679 18.293 20.6844 18.7005 20.2114 18.7005C19.7383 18.7005 19.3549 18.293 19.3549 17.7904Z" fill="white"/>
<mask id="mask0_528_503" style="mask-type:alpha" maskUnits="userSpaceOnUse" x="19" y="4" width="79" height="15">
<path fill-rule="evenodd" clip-rule="evenodd" d="M46.9558 6.20822C47.4284 6.20822 47.8116 6.09035 47.8116 5.94495V4.66367C47.8116 4.51826 47.4284 4.40039 46.9558 4.40039C46.4832 4.40039 46.1001 4.51826 46.1001 4.66367V5.94495C46.1001 6.09035 46.4832 6.20822 46.9558 6.20822ZM62.9131 5.31147C62.9131 4.80884 63.2965 4.40138 63.7696 4.40138C64.2426 4.40138 64.6261 4.80884 64.6261 5.31147V9.55815C65.0512 9.05823 65.6704 8.59612 66.4903 8.31419C66.5299 8.30056 67.4965 8.01315 68.4897 8.31419C70.4424 8.91625 70.8773 11.174 70.8773 11.174V17.7305C70.8773 18.2856 70.5918 18.6999 70.0206 18.6999C69.4495 18.6999 69.0387 18.2856 69.0387 17.7305V12.2276C69.0387 12.1308 69.0387 9.93503 67.0616 9.93503C66.4673 9.93503 65.2805 10.3947 64.6261 12.1556V17.7903C64.6261 18.293 64.2426 18.7004 63.7696 18.7004C63.2965 18.7004 62.9131 18.293 62.9131 17.7903V5.31147ZM86.4639 6.50718C86.9365 6.50718 87.3197 6.38931 87.3197 6.24391V4.96263C87.3197 4.81722 86.9365 4.69935 86.4639 4.69935C85.9913 4.69935 85.6082 4.81722 85.6082 4.96263V6.24391C85.6082 6.38931 85.9913 6.50718 86.4639 6.50718ZM85.6074 8.13802C85.6074 7.73592 85.9909 7.40995 86.4639 7.40995C86.9369 7.40995 87.3204 7.73592 87.3204 8.13802V18.1211C87.3204 18.5232 86.9369 18.8492 86.4639 18.8492C85.9909 18.8492 85.6074 18.5232 85.6074 18.1211V8.13802ZM90.5708 8.28978C90.044 8.28978 89.617 8.59065 89.617 8.96178V18.1761C89.617 18.5472 90.044 18.8481 90.5708 18.8481C91.0975 18.8481 91.5245 18.5472 91.5245 18.1761V11.9406C92.1558 10.4232 93.1158 10.0835 93.7658 10.0835C95.743 10.0835 95.743 12.2794 95.743 12.3761V17.879L95.743 17.9173C95.7424 18.4598 95.7419 18.9991 96.7183 18.9991C97.7178 18.9991 97.7178 18.4341 97.7178 17.879V11.0131C97.7178 11.0131 97.1466 9.06476 95.194 8.46269C94.2007 8.16166 93.2342 8.44907 93.1945 8.46269C92.4213 8.7286 91.8833 9.24455 91.5245 9.81106V8.96178C91.5245 8.59065 91.0975 8.28978 90.5708 8.28978ZM77.9749 18.6986C74.9396 18.6986 72.479 16.1042 72.479 12.9038C72.479 9.70336 74.9396 7.1089 77.9749 7.1089C81.0103 7.1089 83.4709 9.70336 83.4709 12.9038C83.4709 12.9848 83.4693 13.0654 83.4662 13.1456V18.3195C83.4662 18.5285 83.0827 18.6979 82.6097 18.6979C82.1366 18.6979 81.7531 18.5285 81.7531 18.3195V17.1122C80.7683 18.0955 79.4384 18.6986 77.9749 18.6986ZM77.975 16.8926C80.0643 16.8926 81.758 15.1068 81.758 12.9039C81.758 10.701 80.0643 8.9152 77.975 8.9152C75.8858 8.9152 74.1921 10.701 74.1921 12.9039C74.1921 15.1068 75.8858 16.8926 77.975 16.8926ZM50.332 12.7553C50.332 15.9557 52.7926 18.5501 55.8279 18.5501C58.1311 18.5501 60.1033 17.0564 60.9208 14.9377L60.9203 14.9377L60.923 14.9321C60.934 14.9033 60.9448 14.8745 60.9555 14.8456C61.034 14.5767 60.9057 14.3202 60.7775 14.1851C60.6347 14.0346 60.4919 14.0346 60.2063 14.0346C59.9206 14.0346 59.635 14.0346 59.4922 14.1851C59.4583 14.2208 59.4083 14.2905 59.3499 14.3719L59.3498 14.3719C59.2992 14.4424 59.2423 14.5217 59.184 14.5955C58.5532 15.8722 57.2866 16.744 55.8268 16.744C53.7376 16.744 52.0439 14.9582 52.0439 12.7554C52.0439 10.5525 53.7376 8.76667 55.8268 8.76667C57.2881 8.76667 58.5558 9.64021 59.1859 10.919L59.2015 10.9462L59.2015 10.9463L59.2015 10.9464L59.2016 10.9464C59.2562 11.0418 59.3062 11.1292 59.3494 11.1748C59.3831 11.2103 59.4168 11.2542 59.4524 11.3006C59.5676 11.4506 59.7024 11.6263 59.9206 11.6263H60.6347C60.7775 11.6263 61.0631 11.4758 61.0631 11.1748C61.0631 11.0995 61.046 10.9844 61.0222 10.857C60.2767 8.58886 58.2327 6.9604 55.8279 6.9604C52.7926 6.9604 50.332 9.55485 50.332 12.7553ZM46.0991 7.83896C46.0991 7.43686 46.4826 7.11089 46.9556 7.11089C47.4286 7.11089 47.8121 7.43686 47.8121 7.83896V17.8221C47.8121 18.2242 47.4286 18.5501 46.9556 18.5501C46.4826 18.5501 46.0991 18.2242 46.0991 17.8221V7.83896ZM40.2156 17.801C40.2156 18.2979 39.8279 18.7006 39.3496 18.7006C38.8713 18.7006 38.4836 18.2979 38.4836 17.801V12.0246C38.5905 8.91892 40.3584 7.26142 43.4705 7.26142C43.9487 7.26142 44.3364 7.6642 44.3364 8.16106C44.3364 8.65791 43.9487 9.0607 43.4705 9.0607C41.2718 9.0607 40.2918 9.97428 40.2156 12.0413V17.801ZM25.7788 12.9058C25.7788 16.1062 28.2394 18.7006 31.2747 18.7006C34.3101 18.7006 36.7707 16.1062 36.7707 12.9058C36.7707 9.70534 34.3101 7.11089 31.2747 7.11089C28.2394 7.11089 25.7788 9.70534 25.7788 12.9058ZM31.2746 16.8945C33.3638 16.8945 35.0575 15.1087 35.0575 12.9059C35.0575 10.703 33.3638 8.91719 31.2746 8.91719C29.1853 8.91719 27.4917 10.703 27.4917 12.9059C27.4917 15.1087 29.1853 16.8945 31.2746 16.8945ZM20.2114 4.40145C19.7383 4.40145 19.3549 4.80891 19.3549 5.31154V10.7288C19.3722 10.7267 19.3897 10.7256 19.4074 10.7256H21.0679V10.7223H24.0129C24.3575 10.7223 24.6368 10.318 24.6368 9.81922C24.6368 9.32046 24.3575 8.91613 24.0129 8.91613H21.0679V5.31154C21.0679 4.80891 20.6844 4.40145 20.2114 4.40145ZM19.3549 17.7904V12.5286C19.3722 12.5307 19.3897 12.5318 19.4074 12.5318H21.0679V17.7904C21.0679 18.293 20.6844 18.7005 20.2114 18.7005C19.7383 18.7005 19.3549 18.293 19.3549 17.7904Z" fill="white"/>
</mask>
<g mask="url(#mask0_528_503)">
<rect x="-3.5033" y="-4.13965" width="107.969" height="30.8531" fill="#FAFAFA"/>
<rect x="45.0828" y="2.87305" width="4.04885" height="3.50604" fill="url(#paint0_radial_528_503)"/>
<rect x="84.8965" y="4.27539" width="2.69923" height="2.80483" fill="url(#paint1_radial_528_503)"/>
</g>
<mask id="mask1_528_503" style="mask-type:alpha" maskUnits="userSpaceOnUse" x="0" y="0" width="17" height="20">
<rect width="16.1014" height="20" rx="8.05069" fill="white"/>
</mask>
<g mask="url(#mask1_528_503)">
<path d="M2.09611 15.8204C1.82775 15.2774 2.06552 14.6269 2.62718 14.3675C3.18884 14.1081 3.8617 14.3379 4.13006 14.8809C4.84093 16.3192 6.44649 17.2788 8.26134 17.2788C10.7676 17.2788 12.7697 15.4698 12.7697 13.2764C12.7697 11.083 10.7676 9.27399 8.26134 9.27399C7.63887 9.27399 7.13425 8.78616 7.13425 8.1844C7.13425 7.58264 7.63887 7.09481 8.26134 7.09481C11.9798 7.09481 15.0239 9.84534 15.0239 13.2764C15.0239 16.7075 11.9798 19.458 8.26134 19.458C5.58569 19.458 3.18472 18.023 2.09611 15.8204Z" fill="white"/>
<path d="M14.9257 5.15819C15.1795 5.70765 14.9245 6.352 14.3562 6.59737C13.7878 6.84275 13.1212 6.59624 12.8674 6.04678C12.1474 4.48815 10.5448 3.46336 8.7483 3.46336C6.25839 3.46336 4.23991 5.41466 4.23991 7.82171C4.23991 10.2288 6.25839 12.1801 8.7483 12.1801C9.37078 12.1801 9.8754 12.6679 9.8754 13.2697C9.8754 13.8714 9.37078 14.3592 8.7483 14.3592C5.01343 14.3592 1.98572 11.4323 1.98572 7.82171C1.98572 4.21113 5.01343 1.28418 8.7483 1.28418C11.4423 1.28418 13.8462 2.82142 14.9257 5.15819Z" fill="white"/>
</g>
<defs>
<radialGradient id="paint0_radial_528_503" cx="0" cy="0" r="1" gradientUnits="userSpaceOnUse" gradientTransform="translate(45.6293 2.47862) rotate(48.0788) scale(5.24211 5.37773)">
<stop stop-color="#FF8298"/>
<stop offset="1" stop-color="#FFA073"/>
</radialGradient>
<radialGradient id="paint1_radial_528_503" cx="0" cy="0" r="1" gradientUnits="userSpaceOnUse" gradientTransform="translate(85.2609 3.95985) rotate(53.1938) scale(3.89722 3.85788)">
<stop stop-color="#FF8298"/>
<stop offset="1" stop-color="#FFA073"/>
</radialGradient>
</defs>
</svg>
