<svg width="17" height="17" viewBox="0 0 17 17" fill="none" xmlns="http://www.w3.org/2000/svg">
<path d="M8.5 0C5.4994 0 2.86884 1.55878 1.35635 3.90635L0 2.55V6.8H4.25L2.59648 5.14648C3.76549 3.09073 5.96644 1.7 8.5 1.7C12.2553 1.7 15.3 4.7447 15.3 8.5C15.3 12.2553 12.2553 15.3 8.5 15.3C7.9934 15.3 7.48963 15.2445 7.00088 15.134L6.62734 16.7925C7.23849 16.9302 7.86845 17 8.5 17C13.1946 17 17 13.1946 17 8.5C17 3.80545 13.1946 0 8.5 0ZM8.25596 3.4V4.31641C7.96781 4.35296 6.35508 4.65594 6.35508 6.60244C6.35508 9.44229 9.29521 8.60252 9.29521 10.4972C9.29521 11.4458 8.6814 11.4684 8.55645 11.4684C8.44255 11.4684 7.69482 11.5289 7.69482 10.0771H6.08779C6.08779 12.5353 7.87123 12.7301 8.13643 12.7666V13.6H8.98809V12.7666C9.27539 12.7309 10.9006 12.4643 10.9006 10.4855C10.9006 7.76045 7.9613 8.28184 7.96045 6.61074C7.96045 5.65279 8.48737 5.62295 8.60127 5.62295C8.80952 5.62295 9.30518 5.80561 9.30518 6.97266H10.9122C10.9122 4.73971 9.38545 4.3915 9.1126 4.33965V3.4H8.25596ZM0 8.5L0.00166016 8.63447C0.0110102 9.26517 0.0903523 9.89355 0.237402 10.5021L1.89092 10.1054C1.77277 9.61832 1.70931 9.11366 1.70166 8.60791L1.7 8.5H0ZM2.40391 11.5198L0.881543 12.2769C1.16204 12.8387 1.50474 13.3727 1.90254 13.8606L3.2207 12.7882C2.9028 12.3972 2.62831 11.9703 2.40391 11.5198ZM4.29648 13.8457L3.24395 15.1805C3.7395 15.5706 4.27739 15.9063 4.84434 16.1766L5.57647 14.6426C5.12256 14.4258 4.69258 14.1577 4.29648 13.8457Z" fill="#FFCD4B"/>
</svg>
