<svg width="25" height="25" viewBox="0 0 25 25" fill="none" xmlns="http://www.w3.org/2000/svg">
<path d="M11.9048 0C5.34048 0 0 5.09773 0 11.3636C0 17.6295 5.34048 22.7273 11.9048 22.7273C13.1488 22.7273 14.3476 22.5433 15.4762 22.2035V19.7843C14.3726 20.2127 13.1679 20.4545 11.9048 20.4545C6.65357 20.4545 2.38095 16.3761 2.38095 11.3636C2.38095 6.35114 6.65357 2.27273 11.9048 2.27273C15.8929 2.27273 19.3097 4.62727 20.7264 7.95455H23.2608C21.7406 3.34886 17.225 0 11.9048 0ZM10.7143 4.54545V10.8931L6.30115 15.1056L7.98456 16.7125L13.0952 11.8342V4.54545H10.7143ZM20.7194 10.2273V11.8896C20.2873 11.9396 17.8571 12.3555 17.8571 15.0191C17.8571 18.9055 22.5795 17.7526 22.5795 20.3458C22.5795 21.6435 21.6597 21.6752 21.4727 21.6752C21.3025 21.6752 20.1823 21.7573 20.1823 19.771H17.7781C17.7781 23.1357 20.4485 23.403 20.845 23.453V25H22.1191V23.453C22.5489 23.4042 24.9837 23.0382 24.9837 20.3303C24.9837 16.6007 20.2393 17.3155 20.2381 15.028C20.2381 13.7177 21.3723 13.6763 21.5425 13.6763C21.8544 13.6763 22.5958 13.9285 22.5958 15.5251H25C25 12.4694 22.4112 11.9923 22.0029 11.9207V10.2273H20.7194Z" fill="#A2A2A2"/>
</svg>
