<svg width="26" height="25" viewBox="0 0 26 25" fill="none" xmlns="http://www.w3.org/2000/svg">
<path d="M13.5284 0C12.6075 0 11.7244 0.365822 11.0732 1.01699C10.422 1.66816 10.0562 2.55133 10.0562 3.47222C10.0562 4.39311 10.422 5.27629 11.0732 5.92745C11.7244 6.57862 12.6075 6.94444 13.5284 6.94444C14.4493 6.94444 15.3325 6.57862 15.9837 5.92745C16.6348 5.27629 17.0007 4.39311 17.0007 3.47222C17.0007 2.55133 16.6348 1.66816 15.9837 1.01699C15.3325 0.365822 14.4493 0 13.5284 0ZM4.50065 4.16667C3.76394 4.16667 3.0574 4.45932 2.53647 4.98026C2.01553 5.50119 1.72287 6.20773 1.72287 6.94444C1.72287 7.68116 2.01553 8.3877 2.53647 8.90863C3.0574 9.42956 3.76394 9.72222 4.50065 9.72222C5.23736 9.72222 5.9439 9.42956 6.46484 8.90863C6.98577 8.3877 7.27843 7.68116 7.27843 6.94444C7.27843 6.20773 6.98577 5.50119 6.46484 4.98026C5.9439 4.45932 5.23736 4.16667 4.50065 4.16667V4.16667ZM21.1673 5.55556C20.799 5.55556 20.4457 5.70188 20.1852 5.96235C19.9248 6.22282 19.7784 6.57609 19.7784 6.94444C19.7784 7.3128 19.9248 7.66607 20.1852 7.92654C20.4457 8.187 20.799 8.33333 21.1673 8.33333C21.5357 8.33333 21.8889 8.187 22.1494 7.92654C22.4099 7.66607 22.5562 7.3128 22.5562 6.94444C22.5562 6.57609 22.4099 6.22282 22.1494 5.96235C21.8889 5.70188 21.5357 5.55556 21.1673 5.55556ZM2.41732 12.5C1.86478 12.5 1.33488 12.7195 0.944179 13.1102C0.553478 13.5009 0.333984 14.0308 0.333984 14.5833C0.333984 15.1359 0.553478 15.6658 0.944179 16.0565C1.33488 16.4472 1.86478 16.6667 2.41732 16.6667C2.96985 16.6667 3.49976 16.4472 3.89046 16.0565C4.28116 15.6658 4.50065 15.1359 4.50065 14.5833C4.50065 14.0308 4.28116 13.5009 3.89046 13.1102C3.49976 12.7195 2.96985 12.5 2.41732 12.5ZM23.9451 12.5C23.5767 12.5 23.2235 12.6463 22.963 12.9068C22.7025 13.1673 22.5562 13.5205 22.5562 13.8889C22.5562 14.2572 22.7025 14.6105 22.963 14.871C23.2235 15.1314 23.5767 15.2778 23.9451 15.2778C24.3135 15.2778 24.6667 15.1314 24.9272 14.871C25.1877 14.6105 25.334 14.2572 25.334 13.8889C25.334 13.5205 25.1877 13.1673 24.9272 12.9068C24.6667 12.6463 24.3135 12.5 23.9451 12.5ZM6.58398 19.4444C6.03145 19.4444 5.50155 19.6639 5.11084 20.0546C4.72014 20.4453 4.50065 20.9752 4.50065 21.5278C4.50065 22.0803 4.72014 22.6102 5.11084 23.0009C5.50155 23.3916 6.03145 23.6111 6.58398 23.6111C7.13652 23.6111 7.66642 23.3916 8.05712 23.0009C8.44782 22.6102 8.66732 22.0803 8.66732 21.5278C8.66732 20.9752 8.44782 20.4453 8.05712 20.0546C7.66642 19.6639 7.13652 19.4444 6.58398 19.4444V19.4444ZM21.1673 19.4444C20.799 19.4444 20.4457 19.5908 20.1852 19.8512C19.9248 20.1117 19.7784 20.465 19.7784 20.8333C19.7784 21.2017 19.9248 21.555 20.1852 21.8154C20.4457 22.0759 20.799 22.2222 21.1673 22.2222C21.5357 22.2222 21.8889 22.0759 22.1494 21.8154C22.4099 21.555 22.5562 21.2017 22.5562 20.8333C22.5562 20.465 22.4099 20.1117 22.1494 19.8512C21.8889 19.5908 21.5357 19.4444 21.1673 19.4444ZM13.5284 20.8333C12.9759 20.8333 12.446 21.0528 12.0553 21.4435C11.6646 21.8342 11.4451 22.3641 11.4451 22.9167C11.4451 23.4692 11.6646 23.9991 12.0553 24.3898C12.446 24.7805 12.9759 25 13.5284 25C14.081 25 14.6109 24.7805 15.0016 24.3898C15.3923 23.9991 15.6118 23.4692 15.6118 22.9167C15.6118 22.3641 15.3923 21.8342 15.0016 21.4435C14.6109 21.0528 14.081 20.8333 13.5284 20.8333V20.8333Z" fill="#A2A2A2"/>
</svg>
