<svg width="26" height="25" viewBox="0 0 26 25" fill="none" xmlns="http://www.w3.org/2000/svg">
<path d="M13.334 0C6.44523 0 0.833984 5.61125 0.833984 12.5C0.833984 19.3888 6.44523 25 13.334 25C20.2227 25 25.834 19.3888 25.834 12.5C25.834 5.61125 20.2227 0 13.334 0ZM13.334 2.5C18.8716 2.5 23.334 6.96235 23.334 12.5C23.334 14.8163 22.5456 16.9382 21.2319 18.6304L11.9741 9.37256C11.979 9.1714 12.0001 8.97792 12.0474 8.80127C12.0999 8.60502 12.1814 8.43477 12.2939 8.29102C12.4052 8.14727 12.545 8.03172 12.7187 7.94922C12.89 7.86672 13.0977 7.82715 13.3364 7.82715C13.7764 7.82715 14.1262 8.00902 14.3887 8.37402C14.6474 8.73402 14.7755 9.27875 14.7793 10H17.0815C17.079 9.3975 17.0103 8.85051 16.8716 8.36426C16.7316 7.87051 16.531 7.44258 16.271 7.08008C16.0122 6.71758 15.695 6.42498 15.3237 6.19873C15.0962 6.05748 14.8452 5.95772 14.584 5.87646V3.75H12.084V5.87402C11.8852 5.93527 11.6963 6.00857 11.5176 6.10107C11.1326 6.30107 10.8014 6.56113 10.5264 6.87988C10.3627 7.06952 10.2303 7.28248 10.1113 7.50977L7.20361 4.60205C8.89578 3.28842 11.0176 2.5 13.334 2.5ZM5.43604 6.36963L14.7842 15.7178C14.7842 15.7201 14.7842 15.7477 14.7842 15.7495C14.7842 15.9758 14.7527 16.1856 14.689 16.3794C14.6252 16.5719 14.5308 16.7386 14.4033 16.8799C14.2758 17.0211 14.1172 17.1319 13.9297 17.2119C13.7409 17.2907 13.5217 17.3315 13.2729 17.3315C13.0554 17.3315 12.8433 17.2954 12.6333 17.2241C12.4246 17.1529 12.2368 17.0317 12.0718 16.8555C11.9068 16.6817 11.7762 16.4485 11.6787 16.1572C11.58 15.866 11.5322 15.435 11.5322 15H9.23242C9.23242 15.735 9.32682 16.4354 9.51807 16.9629C9.70932 17.4904 9.96348 17.9277 10.2822 18.2739C10.5997 18.6214 10.9672 18.8861 11.3784 19.0698C11.6097 19.1736 11.8476 19.2515 12.0889 19.314V21.25H14.5889V19.2896C14.8114 19.2283 15.0212 19.1478 15.2212 19.0503C15.6112 18.8603 15.9447 18.6096 16.2197 18.2959C16.3995 18.0926 16.5421 17.8556 16.6689 17.6025L19.4644 20.3979C17.7722 21.7116 15.6503 22.5 13.334 22.5C7.79633 22.5 3.33398 18.0377 3.33398 12.5C3.33398 10.1837 4.12241 8.0618 5.43604 6.36963Z" fill="#A2A2A2"/>
</svg>
